<svg viewBox="0 0 1440 149" fill="none" xmlns="http://www.w3.org/2000/svg" xmlns:xlink="http://www.w3.org/1999/xlink">
<path d="M397.5 13.5584C168.7 -34.0416 37.1667 55.0584 0 105.558V148.059H1441.5V13.5584C1441.5 13.5584 1397.85 79.6803 1354.5 83.0586C1316 86.0586 1235.3 68.1586 1066.5 38.5586C855.5 1.55859 683.5 73.0584 397.5 13.5584Z" fill="#E9E3D9"/>
<path d="M397.5 13.5584C168.7 -34.0416 37.1667 55.0584 0 105.558V148.059H1441.5V13.5584C1441.5 13.5584 1397.85 79.6803 1354.5 83.0586C1316 86.0586 1235.3 68.1586 1066.5 38.5586C855.5 1.55859 683.5 73.0584 397.5 13.5584Z" fill="url(#pattern0_215_258)"/>
<defs>
<pattern id="pattern0_215_258" patternContentUnits="objectBoundingBox" width="1" height="1">
<use xlink:href="#image0_215_258" transform="matrix(0.00142857 0 0 0.0139086 0 -4.36801)"/>
</pattern>
<image style="opacity: 0.6;" id="image0_215_258" width="700" height="700" preserveAspectRatio="none" href="./roman-clay-cream.ECVPPxw8.webp"/>
</defs>
</svg>
